# xmcd CD database file
#
# Track frame offsets:
#	150
#	21485
#	37816
#	60022
#	80816
#	99707
#	109919
#	127507
#	141391
#	158844
#	177693
#	191229
#	207473
#	221277
#	236005
#	251030
#	268544
#	282073
#	304693
#	318348
#	331815
#	341348
#
# Disc length: 4755 seconds
#
# Revision: 2
# Processed by: cddbd v1.5.2PL0 Copyright (c) Steve Scherf et al.
# Submitted via: CDex 1.51
#
DISCID=3e129116
DTITLE=Various Artist - ZM-TPMH-Disc-5
DYEAR=1900
DGENRE=Blues
TTITLE0=Neil Diamond - Holly Holy
TTITLE1=Neil Diamond - I Am...I Said
TTITLE2=Elton John - I Guess That's Why They Call It The Blues
TTITLE3=Elvis Presley - I Just Can't Help Believin'
TTITLE4=Barry Manilow - I Made It Through The Rain
TTITLE5=Elvis Presley - I Need Your Love Tonight
TTITLE6=Barry Manilow - I Wanna Do It With You
TTITLE7=Tom Jones - I Who Have Nothing
TTITLE8=Barry Manilow - I Write The Songs
TTITLE9=Tom Jones - I'll Never Fall In Love Again
TTITLE10=Neil Diamond - I'm A Believer
TTITLE11=Tom Jones - I'm Coming Home
TTITLE12=Roy Orbison - I'm Hurtin'
TTITLE13=Elton John - I'm Still Standing
TTITLE14=Elvis Presley - If I Can Dream
TTITLE15=Neil Diamond - If You Know What I Mean
TTITLE16=Roy Orbison - In Dreams
TTITLE17=Phil Collins - In The Air Tonight
TTITLE18=Cliff Richard - In The Country
TTITLE19=Elvis Presley - In The Ghetto
TTITLE20=Cliff Richard - It'll Be Me
TTITLE21=Cliff Richard - It's All In The Game
EXTD=
EXTT0=
EXTT1=
EXTT2=
EXTT3=
EXTT4=
EXTT5=
EXTT6=
EXTT7=
EXTT8=
EXTT9=
EXTT10=
EXTT11=
EXTT12=
EXTT13=
EXTT14=
EXTT15=
EXTT16=
EXTT17=
EXTT18=
EXTT19=
EXTT20=
EXTT21=
PLAYORDER=
